<?xml version="1.0" encoding="utf-8"?>
<!-- Generator: Adobe Illustrator 23.0.3, SVG Export Plug-In . SVG Version: 6.00 Build 0)  -->
<svg version="1.1" id="Layer_1" xmlns="http://www.w3.org/2000/svg" xmlns:xlink="http://www.w3.org/1999/xlink" x="0px" y="0px"
	 viewBox="0 0 31 31" style="enable-background:new 0 0 31 31;" xml:space="preserve">
<style type="text/css">
	.st0{fill:#FFFFFF;}
	.st1{fill:#384F7E;}
</style>
<rect class="st0" width="31" height="31"/>
<rect x="1" y="1" class="st1" width="1" height="1"/>
<rect x="2" y="1" class="st1" width="1" height="1"/>
<rect x="3" y="1" class="st1" width="1" height="1"/>
<rect x="4" y="1" class="st1" width="1" height="1"/>
<rect x="5" y="1" class="st1" width="1" height="1"/>
<rect x="6" y="1" class="st1" width="1" height="1"/>
<rect x="7" y="1" class="st1" width="1" height="1"/>
<rect x="10" y="1" class="st1" width="1" height="1"/>
<rect x="12" y="1" class="st1" width="1" height="1"/>
<rect x="16" y="1" class="st1" width="1" height="1"/>
<rect x="17" y="1" class="st1" width="1" height="1"/>
<rect x="19" y="1" class="st1" width="1" height="1"/>
<rect x="20" y="1" class="st1" width="1" height="1"/>
<rect x="23" y="1" class="st1" width="1" height="1"/>
<rect x="24" y="1" class="st1" width="1" height="1"/>
<rect x="25" y="1" class="st1" width="1" height="1"/>
<rect x="26" y="1" class="st1" width="1" height="1"/>
<rect x="27" y="1" class="st1" width="1" height="1"/>
<rect x="28" y="1" class="st1" width="1" height="1"/>
<rect x="29" y="1" class="st1" width="1" height="1"/>
<rect x="1" y="2" class="st1" width="1" height="1"/>
<rect x="7" y="2" class="st1" width="1" height="1"/>
<rect x="9" y="2" class="st1" width="1" height="1"/>
<rect x="10" y="2" class="st1" width="1" height="1"/>
<rect x="11" y="2" class="st1" width="1" height="1"/>
<rect x="14" y="2" class="st1" width="1" height="1"/>
<rect x="15" y="2" class="st1" width="1" height="1"/>
<rect x="16" y="2" class="st1" width="1" height="1"/>
<rect x="17" y="2" class="st1" width="1" height="1"/>
<rect x="21" y="2" class="st1" width="1" height="1"/>
<rect x="23" y="2" class="st1" width="1" height="1"/>
<rect x="29" y="2" class="st1" width="1" height="1"/>
<rect x="1" y="3" class="st1" width="1" height="1"/>
<rect x="3" y="3" class="st1" width="1" height="1"/>
<rect x="4" y="3" class="st1" width="1" height="1"/>
<rect x="5" y="3" class="st1" width="1" height="1"/>
<rect x="7" y="3" class="st1" width="1" height="1"/>
<rect x="10" y="3" class="st1" width="1" height="1"/>
<rect x="12" y="3" class="st1" width="1" height="1"/>
<rect x="14" y="3" class="st1" width="1" height="1"/>
<rect x="15" y="3" class="st1" width="1" height="1"/>
<rect x="19" y="3" class="st1" width="1" height="1"/>
<rect x="21" y="3" class="st1" width="1" height="1"/>
<rect x="23" y="3" class="st1" width="1" height="1"/>
<rect x="25" y="3" class="st1" width="1" height="1"/>
<rect x="26" y="3" class="st1" width="1" height="1"/>
<rect x="27" y="3" class="st1" width="1" height="1"/>
<rect x="29" y="3" class="st1" width="1" height="1"/>
<rect x="1" y="4" class="st1" width="1" height="1"/>
<rect x="3" y="4" class="st1" width="1" height="1"/>
<rect x="4" y="4" class="st1" width="1" height="1"/>
<rect x="5" y="4" class="st1" width="1" height="1"/>
<rect x="7" y="4" class="st1" width="1" height="1"/>
<rect x="9" y="4" class="st1" width="1" height="1"/>
<rect x="13" y="4" class="st1" width="1" height="1"/>
<rect x="14" y="4" class="st1" width="1" height="1"/>
<rect x="18" y="4" class="st1" width="1" height="1"/>
<rect x="20" y="4" class="st1" width="1" height="1"/>
<rect x="21" y="4" class="st1" width="1" height="1"/>
<rect x="23" y="4" class="st1" width="1" height="1"/>
<rect x="25" y="4" class="st1" width="1" height="1"/>
<rect x="26" y="4" class="st1" width="1" height="1"/>
<rect x="27" y="4" class="st1" width="1" height="1"/>
<rect x="29" y="4" class="st1" width="1" height="1"/>
<rect x="1" y="5" class="st1" width="1" height="1"/>
<rect x="3" y="5" class="st1" width="1" height="1"/>
<rect x="4" y="5" class="st1" width="1" height="1"/>
<rect x="5" y="5" class="st1" width="1" height="1"/>
<rect x="7" y="5" class="st1" width="1" height="1"/>
<rect x="9" y="5" class="st1" width="1" height="1"/>
<rect x="11" y="5" class="st1" width="1" height="1"/>
<rect x="12" y="5" class="st1" width="1" height="1"/>
<rect x="14" y="5" class="st1" width="1" height="1"/>
<rect x="15" y="5" class="st1" width="1" height="1"/>
<rect x="16" y="5" class="st1" width="1" height="1"/>
<rect x="17" y="5" class="st1" width="1" height="1"/>
<rect x="18" y="5" class="st1" width="1" height="1"/>
<rect x="19" y="5" class="st1" width="1" height="1"/>
<rect x="20" y="5" class="st1" width="1" height="1"/>
<rect x="23" y="5" class="st1" width="1" height="1"/>
<rect x="25" y="5" class="st1" width="1" height="1"/>
<rect x="26" y="5" class="st1" width="1" height="1"/>
<rect x="27" y="5" class="st1" width="1" height="1"/>
<rect x="29" y="5" class="st1" width="1" height="1"/>
<rect x="1" y="6" class="st1" width="1" height="1"/>
<rect x="7" y="6" class="st1" width="1" height="1"/>
<rect x="10" y="6" class="st1" width="1" height="1"/>
<rect x="11" y="6" class="st1" width="1" height="1"/>
<rect x="12" y="6" class="st1" width="1" height="1"/>
<rect x="14" y="6" class="st1" width="1" height="1"/>
<rect x="15" y="6" class="st1" width="1" height="1"/>
<rect x="18" y="6" class="st1" width="1" height="1"/>
<rect x="19" y="6" class="st1" width="1" height="1"/>
<rect x="21" y="6" class="st1" width="1" height="1"/>
<rect x="23" y="6" class="st1" width="1" height="1"/>
<rect x="29" y="6" class="st1" width="1" height="1"/>
<rect x="1" y="7" class="st1" width="1" height="1"/>
<rect x="2" y="7" class="st1" width="1" height="1"/>
<rect x="3" y="7" class="st1" width="1" height="1"/>
<rect x="4" y="7" class="st1" width="1" height="1"/>
<rect x="5" y="7" class="st1" width="1" height="1"/>
<rect x="6" y="7" class="st1" width="1" height="1"/>
<rect x="7" y="7" class="st1" width="1" height="1"/>
<rect x="9" y="7" class="st1" width="1" height="1"/>
<rect x="11" y="7" class="st1" width="1" height="1"/>
<rect x="13" y="7" class="st1" width="1" height="1"/>
<rect x="15" y="7" class="st1" width="1" height="1"/>
<rect x="17" y="7" class="st1" width="1" height="1"/>
<rect x="19" y="7" class="st1" width="1" height="1"/>
<rect x="21" y="7" class="st1" width="1" height="1"/>
<rect x="23" y="7" class="st1" width="1" height="1"/>
<rect x="24" y="7" class="st1" width="1" height="1"/>
<rect x="25" y="7" class="st1" width="1" height="1"/>
<rect x="26" y="7" class="st1" width="1" height="1"/>
<rect x="27" y="7" class="st1" width="1" height="1"/>
<rect x="28" y="7" class="st1" width="1" height="1"/>
<rect x="29" y="7" class="st1" width="1" height="1"/>
<rect x="9" y="8" class="st1" width="1" height="1"/>
<rect x="12" y="8" class="st1" width="1" height="1"/>
<rect x="13" y="8" class="st1" width="1" height="1"/>
<rect x="14" y="8" class="st1" width="1" height="1"/>
<rect x="15" y="8" class="st1" width="1" height="1"/>
<rect x="20" y="8" class="st1" width="1" height="1"/>
<rect x="2" y="9" class="st1" width="1" height="1"/>
<rect x="4" y="9" class="st1" width="1" height="1"/>
<rect x="5" y="9" class="st1" width="1" height="1"/>
<rect x="6" y="9" class="st1" width="1" height="1"/>
<rect x="7" y="9" class="st1" width="1" height="1"/>
<rect x="9" y="9" class="st1" width="1" height="1"/>
<rect x="11" y="9" class="st1" width="1" height="1"/>
<rect x="14" y="9" class="st1" width="1" height="1"/>
<rect x="15" y="9" class="st1" width="1" height="1"/>
<rect x="16" y="9" class="st1" width="1" height="1"/>
<rect x="17" y="9" class="st1" width="1" height="1"/>
<rect x="19" y="9" class="st1" width="1" height="1"/>
<rect x="20" y="9" class="st1" width="1" height="1"/>
<rect x="21" y="9" class="st1" width="1" height="1"/>
<rect x="22" y="9" class="st1" width="1" height="1"/>
<rect x="23" y="9" class="st1" width="1" height="1"/>
<rect x="25" y="9" class="st1" width="1" height="1"/>
<rect x="26" y="9" class="st1" width="1" height="1"/>
<rect x="28" y="9" class="st1" width="1" height="1"/>
<rect x="1" y="10" class="st1" width="1" height="1"/>
<rect x="2" y="10" class="st1" width="1" height="1"/>
<rect x="3" y="10" class="st1" width="1" height="1"/>
<rect x="5" y="10" class="st1" width="1" height="1"/>
<rect x="11" y="10" class="st1" width="1" height="1"/>
<rect x="13" y="10" class="st1" width="1" height="1"/>
<rect x="14" y="10" class="st1" width="1" height="1"/>
<rect x="16" y="10" class="st1" width="1" height="1"/>
<rect x="17" y="10" class="st1" width="1" height="1"/>
<rect x="18" y="10" class="st1" width="1" height="1"/>
<rect x="21" y="10" class="st1" width="1" height="1"/>
<rect x="22" y="10" class="st1" width="1" height="1"/>
<rect x="24" y="10" class="st1" width="1" height="1"/>
<rect x="25" y="10" class="st1" width="1" height="1"/>
<rect x="26" y="10" class="st1" width="1" height="1"/>
<rect x="28" y="10" class="st1" width="1" height="1"/>
<rect x="1" y="11" class="st1" width="1" height="1"/>
<rect x="2" y="11" class="st1" width="1" height="1"/>
<rect x="3" y="11" class="st1" width="1" height="1"/>
<rect x="4" y="11" class="st1" width="1" height="1"/>
<rect x="5" y="11" class="st1" width="1" height="1"/>
<rect x="7" y="11" class="st1" width="1" height="1"/>
<rect x="9" y="11" class="st1" width="1" height="1"/>
<rect x="14" y="11" class="st1" width="1" height="1"/>
<rect x="18" y="11" class="st1" width="1" height="1"/>
<rect x="19" y="11" class="st1" width="1" height="1"/>
<rect x="23" y="11" class="st1" width="1" height="1"/>
<rect x="25" y="11" class="st1" width="1" height="1"/>
<rect x="26" y="11" class="st1" width="1" height="1"/>
<rect x="1" y="12" class="st1" width="1" height="1"/>
<rect x="2" y="12" class="st1" width="1" height="1"/>
<rect x="4" y="12" class="st1" width="1" height="1"/>
<rect x="5" y="12" class="st1" width="1" height="1"/>
<rect x="9" y="12" class="st1" width="1" height="1"/>
<rect x="10" y="12" class="st1" width="1" height="1"/>
<rect x="15" y="12" class="st1" width="1" height="1"/>
<rect x="18" y="12" class="st1" width="1" height="1"/>
<rect x="22" y="12" class="st1" width="1" height="1"/>
<rect x="26" y="12" class="st1" width="1" height="1"/>
<rect x="29" y="12" class="st1" width="1" height="1"/>
<rect x="3" y="13" class="st1" width="1" height="1"/>
<rect x="4" y="13" class="st1" width="1" height="1"/>
<rect x="5" y="13" class="st1" width="1" height="1"/>
<rect x="6" y="13" class="st1" width="1" height="1"/>
<rect x="7" y="13" class="st1" width="1" height="1"/>
<rect x="8" y="13" class="st1" width="1" height="1"/>
<rect x="9" y="13" class="st1" width="1" height="1"/>
<rect x="11" y="13" class="st1" width="1" height="1"/>
<rect x="12" y="13" class="st1" width="1" height="1"/>
<rect x="17" y="13" class="st1" width="1" height="1"/>
<rect x="20" y="13" class="st1" width="1" height="1"/>
<rect x="21" y="13" class="st1" width="1" height="1"/>
<rect x="22" y="13" class="st1" width="1" height="1"/>
<rect x="23" y="13" class="st1" width="1" height="1"/>
<rect x="24" y="13" class="st1" width="1" height="1"/>
<rect x="26" y="13" class="st1" width="1" height="1"/>
<rect x="28" y="13" class="st1" width="1" height="1"/>
<rect x="1" y="14" class="st1" width="1" height="1"/>
<rect x="4" y="14" class="st1" width="1" height="1"/>
<rect x="5" y="14" class="st1" width="1" height="1"/>
<rect x="9" y="14" class="st1" width="1" height="1"/>
<rect x="10" y="14" class="st1" width="1" height="1"/>
<rect x="12" y="14" class="st1" width="1" height="1"/>
<rect x="14" y="14" class="st1" width="1" height="1"/>
<rect x="15" y="14" class="st1" width="1" height="1"/>
<rect x="17" y="14" class="st1" width="1" height="1"/>
<rect x="18" y="14" class="st1" width="1" height="1"/>
<rect x="19" y="14" class="st1" width="1" height="1"/>
<rect x="23" y="14" class="st1" width="1" height="1"/>
<rect x="25" y="14" class="st1" width="1" height="1"/>
<rect x="27" y="14" class="st1" width="1" height="1"/>
<rect x="29" y="14" class="st1" width="1" height="1"/>
<rect x="1" y="15" class="st1" width="1" height="1"/>
<rect x="2" y="15" class="st1" width="1" height="1"/>
<rect x="3" y="15" class="st1" width="1" height="1"/>
<rect x="5" y="15" class="st1" width="1" height="1"/>
<rect x="7" y="15" class="st1" width="1" height="1"/>
<rect x="10" y="15" class="st1" width="1" height="1"/>
<rect x="13" y="15" class="st1" width="1" height="1"/>
<rect x="14" y="15" class="st1" width="1" height="1"/>
<rect x="15" y="15" class="st1" width="1" height="1"/>
<rect x="16" y="15" class="st1" width="1" height="1"/>
<rect x="18" y="15" class="st1" width="1" height="1"/>
<rect x="20" y="15" class="st1" width="1" height="1"/>
<rect x="22" y="15" class="st1" width="1" height="1"/>
<rect x="23" y="15" class="st1" width="1" height="1"/>
<rect x="26" y="15" class="st1" width="1" height="1"/>
<rect x="28" y="15" class="st1" width="1" height="1"/>
<rect x="29" y="15" class="st1" width="1" height="1"/>
<rect x="1" y="16" class="st1" width="1" height="1"/>
<rect x="2" y="16" class="st1" width="1" height="1"/>
<rect x="5" y="16" class="st1" width="1" height="1"/>
<rect x="6" y="16" class="st1" width="1" height="1"/>
<rect x="8" y="16" class="st1" width="1" height="1"/>
<rect x="9" y="16" class="st1" width="1" height="1"/>
<rect x="14" y="16" class="st1" width="1" height="1"/>
<rect x="16" y="16" class="st1" width="1" height="1"/>
<rect x="17" y="16" class="st1" width="1" height="1"/>
<rect x="18" y="16" class="st1" width="1" height="1"/>
<rect x="19" y="16" class="st1" width="1" height="1"/>
<rect x="20" y="16" class="st1" width="1" height="1"/>
<rect x="26" y="16" class="st1" width="1" height="1"/>
<rect x="27" y="16" class="st1" width="1" height="1"/>
<rect x="28" y="16" class="st1" width="1" height="1"/>
<rect x="5" y="17" class="st1" width="1" height="1"/>
<rect x="6" y="17" class="st1" width="1" height="1"/>
<rect x="7" y="17" class="st1" width="1" height="1"/>
<rect x="9" y="17" class="st1" width="1" height="1"/>
<rect x="10" y="17" class="st1" width="1" height="1"/>
<rect x="12" y="17" class="st1" width="1" height="1"/>
<rect x="16" y="17" class="st1" width="1" height="1"/>
<rect x="17" y="17" class="st1" width="1" height="1"/>
<rect x="18" y="17" class="st1" width="1" height="1"/>
<rect x="20" y="17" class="st1" width="1" height="1"/>
<rect x="21" y="17" class="st1" width="1" height="1"/>
<rect x="24" y="17" class="st1" width="1" height="1"/>
<rect x="26" y="17" class="st1" width="1" height="1"/>
<rect x="29" y="17" class="st1" width="1" height="1"/>
<rect x="1" y="18" class="st1" width="1" height="1"/>
<rect x="2" y="18" class="st1" width="1" height="1"/>
<rect x="3" y="18" class="st1" width="1" height="1"/>
<rect x="5" y="18" class="st1" width="1" height="1"/>
<rect x="6" y="18" class="st1" width="1" height="1"/>
<rect x="10" y="18" class="st1" width="1" height="1"/>
<rect x="11" y="18" class="st1" width="1" height="1"/>
<rect x="14" y="18" class="st1" width="1" height="1"/>
<rect x="15" y="18" class="st1" width="1" height="1"/>
<rect x="17" y="18" class="st1" width="1" height="1"/>
<rect x="19" y="18" class="st1" width="1" height="1"/>
<rect x="21" y="18" class="st1" width="1" height="1"/>
<rect x="22" y="18" class="st1" width="1" height="1"/>
<rect x="25" y="18" class="st1" width="1" height="1"/>
<rect x="27" y="18" class="st1" width="1" height="1"/>
<rect x="1" y="19" class="st1" width="1" height="1"/>
<rect x="2" y="19" class="st1" width="1" height="1"/>
<rect x="4" y="19" class="st1" width="1" height="1"/>
<rect x="5" y="19" class="st1" width="1" height="1"/>
<rect x="6" y="19" class="st1" width="1" height="1"/>
<rect x="7" y="19" class="st1" width="1" height="1"/>
<rect x="9" y="19" class="st1" width="1" height="1"/>
<rect x="10" y="19" class="st1" width="1" height="1"/>
<rect x="12" y="19" class="st1" width="1" height="1"/>
<rect x="16" y="19" class="st1" width="1" height="1"/>
<rect x="21" y="19" class="st1" width="1" height="1"/>
<rect x="24" y="19" class="st1" width="1" height="1"/>
<rect x="26" y="19" class="st1" width="1" height="1"/>
<rect x="29" y="19" class="st1" width="1" height="1"/>
<rect x="1" y="20" class="st1" width="1" height="1"/>
<rect x="2" y="20" class="st1" width="1" height="1"/>
<rect x="3" y="20" class="st1" width="1" height="1"/>
<rect x="4" y="20" class="st1" width="1" height="1"/>
<rect x="6" y="20" class="st1" width="1" height="1"/>
<rect x="9" y="20" class="st1" width="1" height="1"/>
<rect x="12" y="20" class="st1" width="1" height="1"/>
<rect x="14" y="20" class="st1" width="1" height="1"/>
<rect x="15" y="20" class="st1" width="1" height="1"/>
<rect x="19" y="20" class="st1" width="1" height="1"/>
<rect x="22" y="20" class="st1" width="1" height="1"/>
<rect x="23" y="20" class="st1" width="1" height="1"/>
<rect x="25" y="20" class="st1" width="1" height="1"/>
<rect x="27" y="20" class="st1" width="1" height="1"/>
<rect x="1" y="21" class="st1" width="1" height="1"/>
<rect x="2" y="21" class="st1" width="1" height="1"/>
<rect x="3" y="21" class="st1" width="1" height="1"/>
<rect x="4" y="21" class="st1" width="1" height="1"/>
<rect x="5" y="21" class="st1" width="1" height="1"/>
<rect x="7" y="21" class="st1" width="1" height="1"/>
<rect x="8" y="21" class="st1" width="1" height="1"/>
<rect x="9" y="21" class="st1" width="1" height="1"/>
<rect x="10" y="21" class="st1" width="1" height="1"/>
<rect x="12" y="21" class="st1" width="1" height="1"/>
<rect x="14" y="21" class="st1" width="1" height="1"/>
<rect x="16" y="21" class="st1" width="1" height="1"/>
<rect x="18" y="21" class="st1" width="1" height="1"/>
<rect x="21" y="21" class="st1" width="1" height="1"/>
<rect x="22" y="21" class="st1" width="1" height="1"/>
<rect x="23" y="21" class="st1" width="1" height="1"/>
<rect x="24" y="21" class="st1" width="1" height="1"/>
<rect x="25" y="21" class="st1" width="1" height="1"/>
<rect x="27" y="21" class="st1" width="1" height="1"/>
<rect x="28" y="21" class="st1" width="1" height="1"/>
<rect x="9" y="22" class="st1" width="1" height="1"/>
<rect x="11" y="22" class="st1" width="1" height="1"/>
<rect x="16" y="22" class="st1" width="1" height="1"/>
<rect x="19" y="22" class="st1" width="1" height="1"/>
<rect x="21" y="22" class="st1" width="1" height="1"/>
<rect x="25" y="22" class="st1" width="1" height="1"/>
<rect x="26" y="22" class="st1" width="1" height="1"/>
<rect x="27" y="22" class="st1" width="1" height="1"/>
<rect x="1" y="23" class="st1" width="1" height="1"/>
<rect x="2" y="23" class="st1" width="1" height="1"/>
<rect x="3" y="23" class="st1" width="1" height="1"/>
<rect x="4" y="23" class="st1" width="1" height="1"/>
<rect x="5" y="23" class="st1" width="1" height="1"/>
<rect x="6" y="23" class="st1" width="1" height="1"/>
<rect x="7" y="23" class="st1" width="1" height="1"/>
<rect x="11" y="23" class="st1" width="1" height="1"/>
<rect x="13" y="23" class="st1" width="1" height="1"/>
<rect x="14" y="23" class="st1" width="1" height="1"/>
<rect x="16" y="23" class="st1" width="1" height="1"/>
<rect x="18" y="23" class="st1" width="1" height="1"/>
<rect x="19" y="23" class="st1" width="1" height="1"/>
<rect x="20" y="23" class="st1" width="1" height="1"/>
<rect x="21" y="23" class="st1" width="1" height="1"/>
<rect x="23" y="23" class="st1" width="1" height="1"/>
<rect x="25" y="23" class="st1" width="1" height="1"/>
<rect x="27" y="23" class="st1" width="1" height="1"/>
<rect x="1" y="24" class="st1" width="1" height="1"/>
<rect x="7" y="24" class="st1" width="1" height="1"/>
<rect x="9" y="24" class="st1" width="1" height="1"/>
<rect x="11" y="24" class="st1" width="1" height="1"/>
<rect x="12" y="24" class="st1" width="1" height="1"/>
<rect x="13" y="24" class="st1" width="1" height="1"/>
<rect x="16" y="24" class="st1" width="1" height="1"/>
<rect x="18" y="24" class="st1" width="1" height="1"/>
<rect x="20" y="24" class="st1" width="1" height="1"/>
<rect x="21" y="24" class="st1" width="1" height="1"/>
<rect x="25" y="24" class="st1" width="1" height="1"/>
<rect x="26" y="24" class="st1" width="1" height="1"/>
<rect x="29" y="24" class="st1" width="1" height="1"/>
<rect x="1" y="25" class="st1" width="1" height="1"/>
<rect x="3" y="25" class="st1" width="1" height="1"/>
<rect x="4" y="25" class="st1" width="1" height="1"/>
<rect x="5" y="25" class="st1" width="1" height="1"/>
<rect x="7" y="25" class="st1" width="1" height="1"/>
<rect x="9" y="25" class="st1" width="1" height="1"/>
<rect x="14" y="25" class="st1" width="1" height="1"/>
<rect x="15" y="25" class="st1" width="1" height="1"/>
<rect x="17" y="25" class="st1" width="1" height="1"/>
<rect x="18" y="25" class="st1" width="1" height="1"/>
<rect x="19" y="25" class="st1" width="1" height="1"/>
<rect x="20" y="25" class="st1" width="1" height="1"/>
<rect x="21" y="25" class="st1" width="1" height="1"/>
<rect x="22" y="25" class="st1" width="1" height="1"/>
<rect x="23" y="25" class="st1" width="1" height="1"/>
<rect x="24" y="25" class="st1" width="1" height="1"/>
<rect x="25" y="25" class="st1" width="1" height="1"/>
<rect x="29" y="25" class="st1" width="1" height="1"/>
<rect x="1" y="26" class="st1" width="1" height="1"/>
<rect x="3" y="26" class="st1" width="1" height="1"/>
<rect x="4" y="26" class="st1" width="1" height="1"/>
<rect x="5" y="26" class="st1" width="1" height="1"/>
<rect x="7" y="26" class="st1" width="1" height="1"/>
<rect x="9" y="26" class="st1" width="1" height="1"/>
<rect x="10" y="26" class="st1" width="1" height="1"/>
<rect x="11" y="26" class="st1" width="1" height="1"/>
<rect x="12" y="26" class="st1" width="1" height="1"/>
<rect x="15" y="26" class="st1" width="1" height="1"/>
<rect x="17" y="26" class="st1" width="1" height="1"/>
<rect x="18" y="26" class="st1" width="1" height="1"/>
<rect x="22" y="26" class="st1" width="1" height="1"/>
<rect x="24" y="26" class="st1" width="1" height="1"/>
<rect x="26" y="26" class="st1" width="1" height="1"/>
<rect x="28" y="26" class="st1" width="1" height="1"/>
<rect x="1" y="27" class="st1" width="1" height="1"/>
<rect x="3" y="27" class="st1" width="1" height="1"/>
<rect x="4" y="27" class="st1" width="1" height="1"/>
<rect x="5" y="27" class="st1" width="1" height="1"/>
<rect x="7" y="27" class="st1" width="1" height="1"/>
<rect x="11" y="27" class="st1" width="1" height="1"/>
<rect x="14" y="27" class="st1" width="1" height="1"/>
<rect x="17" y="27" class="st1" width="1" height="1"/>
<rect x="18" y="27" class="st1" width="1" height="1"/>
<rect x="19" y="27" class="st1" width="1" height="1"/>
<rect x="21" y="27" class="st1" width="1" height="1"/>
<rect x="22" y="27" class="st1" width="1" height="1"/>
<rect x="25" y="27" class="st1" width="1" height="1"/>
<rect x="26" y="27" class="st1" width="1" height="1"/>
<rect x="28" y="27" class="st1" width="1" height="1"/>
<rect x="29" y="27" class="st1" width="1" height="1"/>
<rect x="1" y="28" class="st1" width="1" height="1"/>
<rect x="7" y="28" class="st1" width="1" height="1"/>
<rect x="9" y="28" class="st1" width="1" height="1"/>
<rect x="12" y="28" class="st1" width="1" height="1"/>
<rect x="15" y="28" class="st1" width="1" height="1"/>
<rect x="16" y="28" class="st1" width="1" height="1"/>
<rect x="21" y="28" class="st1" width="1" height="1"/>
<rect x="23" y="28" class="st1" width="1" height="1"/>
<rect x="25" y="28" class="st1" width="1" height="1"/>
<rect x="26" y="28" class="st1" width="1" height="1"/>
<rect x="27" y="28" class="st1" width="1" height="1"/>
<rect x="29" y="28" class="st1" width="1" height="1"/>
<rect x="1" y="29" class="st1" width="1" height="1"/>
<rect x="2" y="29" class="st1" width="1" height="1"/>
<rect x="3" y="29" class="st1" width="1" height="1"/>
<rect x="4" y="29" class="st1" width="1" height="1"/>
<rect x="5" y="29" class="st1" width="1" height="1"/>
<rect x="6" y="29" class="st1" width="1" height="1"/>
<rect x="7" y="29" class="st1" width="1" height="1"/>
<rect x="10" y="29" class="st1" width="1" height="1"/>
<rect x="12" y="29" class="st1" width="1" height="1"/>
<rect x="14" y="29" class="st1" width="1" height="1"/>
<rect x="19" y="29" class="st1" width="1" height="1"/>
<rect x="21" y="29" class="st1" width="1" height="1"/>
<rect x="22" y="29" class="st1" width="1" height="1"/>
<rect x="23" y="29" class="st1" width="1" height="1"/>
<rect x="24" y="29" class="st1" width="1" height="1"/>
<rect x="25" y="29" class="st1" width="1" height="1"/>
</svg>
