<svg xmlns="http://www.w3.org/2000/svg" xmlns:xlink="http://www.w3.org/1999/xlink" width="133.119" height="38.327" viewBox="0 0 133.119 38.327">
  <defs>
    <clipPath id="clip-path">
      <path id="Path_32" data-name="Path 32" d="M337.607,82.944A13.047,13.047,0,1,1,324.564,69.9,13.047,13.047,0,0,1,337.607,82.944Z" transform="translate(-311.513 -69.898)" fill="none"/>
    </clipPath>
  </defs>
  <g id="Layer_2" data-name="Layer 2" transform="translate(-95.725 -58.525)">
    <g id="Group_3" data-name="Group 3" transform="translate(95.725 59.227)">
      <path id="Path_1" data-name="Path 1" d="M95.725,84.245l8.784-24.224H110.6l8.817,24.224v1.507h-5.715l-2.2-6.544h-8.932l-2.115,6.544H95.725Zm8.1-8.965h6.359L107,65.795h-.076Z" transform="translate(-95.725 -60.021)" fill="#fff"/>
      <path id="Path_2" data-name="Path 2" d="M149.511,91.406V87.439h1.739a7.343,7.343,0,0,0,4.881,1.62c2.24,0,3.409-.589,3.409-1.8,0-1.174-.717-1.731-3.522-2.063-4.352-.509-6.661-2.092-6.661-5.881,0-3.9,2.993-6.065,7.872-6.065a13.292,13.292,0,0,1,6.242,1.322v3.9h-1.661a7.855,7.855,0,0,0-4.539-1.283c-2.165,0-2.989.622-2.989,1.723,0,1,.979,1.511,3.7,1.844,4.729.587,6.7,2.094,6.7,5.992,0,3.788-2.534,6.248-8.288,6.248a13.664,13.664,0,0,1-6.888-1.585" transform="translate(-124.174 -67.038)" fill="#fff"/>
      <path id="Path_3" data-name="Path 3" d="M183.359,67.908H185.7v-5.15h5.525v5.15h4.016v3.6h-4.016V81.4c0,1.839.756,2.349,2.571,2.349h1.517v3.238a11.219,11.219,0,0,1-3.483.513c-3.819,0-6.13-1.47-6.13-5.474V71.509h-2.345Z" transform="translate(-142.21 -61.473)" fill="#fff"/>
      <path id="Path_4" data-name="Path 4" d="M215.727,84.235c.27,3.858,2.156,4.928,5.225,4.928a8.877,8.877,0,0,0,5.256-1.622h1.705v3.532a14.81,14.81,0,0,1-7.794,1.873c-6.513,0-10.069-3.749-10.069-9.815,0-6.213,4.167-10.034,9.682-10.034,5.832,0,8.939,3.125,8.939,9.482,0,.663-.079,1.47-.079,1.657ZM215.8,81h7.417c-.109-3.423-1.328-4.521-3.487-4.521-1.927,0-3.508.919-3.93,4.521" transform="translate(-156.369 -66.957)" fill="#fff"/>
      <path id="Path_5" data-name="Path 5" d="M260.923,78.879V92.811H255.4v-19.3h3.753c.939,0,1.509.4,1.7,2.316a7.619,7.619,0,0,1,5.529-2.5,4.218,4.218,0,0,1,1.212.187v4.227h-.947a12.771,12.771,0,0,0-5.717,1.138" transform="translate(-180.422 -67.079)" fill="#fff"/>
      <path id="Path_6" data-name="Path 6" d="M95.725,84.245l8.784-24.224H110.6l8.817,24.224v1.507h-5.715l-2.2-6.544h-8.932l-2.115,6.544H95.725Zm8.1-8.965h6.359L107,65.795h-.076Z" transform="translate(-95.725 -60.021)" fill="#fff"/>
      <path id="Path_7" data-name="Path 7" d="M149.511,91.406V87.439h1.739a7.343,7.343,0,0,0,4.881,1.62c2.24,0,3.409-.589,3.409-1.8,0-1.174-.717-1.731-3.522-2.063-4.352-.509-6.661-2.092-6.661-5.881,0-3.9,2.993-6.065,7.872-6.065a13.292,13.292,0,0,1,6.242,1.322v3.9h-1.661a7.855,7.855,0,0,0-4.539-1.283c-2.165,0-2.989.622-2.989,1.723,0,1,.979,1.511,3.7,1.844,4.729.587,6.7,2.094,6.7,5.992,0,3.788-2.534,6.248-8.288,6.248a13.664,13.664,0,0,1-6.888-1.585" transform="translate(-124.174 -67.038)" fill="#fff"/>
      <path id="Path_8" data-name="Path 8" d="M183.359,67.908H185.7v-5.15h5.525v5.15h4.016v3.6h-4.016V81.4c0,1.839.756,2.349,2.571,2.349h1.517v3.238a11.219,11.219,0,0,1-3.483.513c-3.819,0-6.13-1.47-6.13-5.474V71.509h-2.345Z" transform="translate(-142.21 -61.473)" fill="#fff"/>
      <path id="Path_9" data-name="Path 9" d="M215.727,84.235c.27,3.858,2.156,4.928,5.225,4.928a8.877,8.877,0,0,0,5.256-1.622h1.705v3.532a14.81,14.81,0,0,1-7.794,1.873c-6.513,0-10.069-3.749-10.069-9.815,0-6.213,4.167-10.034,9.682-10.034,5.832,0,8.939,3.125,8.939,9.482,0,.663-.079,1.47-.079,1.657ZM215.8,81h7.417c-.109-3.423-1.328-4.521-3.487-4.521-1.927,0-3.508.919-3.93,4.521" transform="translate(-156.369 -66.957)" fill="#fff"/>
      <path id="Path_10" data-name="Path 10" d="M260.923,78.879V92.811H255.4v-19.3h3.753c.939,0,1.509.4,1.7,2.316a7.619,7.619,0,0,1,5.529-2.5,4.218,4.218,0,0,1,1.212.187v4.227h-.947a12.771,12.771,0,0,0-5.717,1.138" transform="translate(-180.422 -67.079)" fill="#fff"/>
    </g>
    <g id="Group_4" data-name="Group 4" transform="translate(191.35 58.525)">
      <path id="Path_11" data-name="Path 11" d="M336.885,77.42A18.619,18.619,0,1,1,318.265,58.8,18.618,18.618,0,0,1,336.885,77.42Z" transform="translate(-299.519 -58.669)" fill="#fff"/>
      <path id="Path_12" data-name="Path 12" d="M318.121,96.019a18.747,18.747,0,1,1,18.748-18.743A18.766,18.766,0,0,1,318.121,96.019Zm0-37.238a18.491,18.491,0,1,0,18.492,18.494A18.513,18.513,0,0,0,318.121,58.781Z" transform="translate(-299.374 -58.525)" fill="#151011"/>
    </g>
    <g id="Group_5" data-name="Group 5" transform="translate(193.335 80.193)">
      <path id="Path_13" data-name="Path 13" d="M304.8,107.808l-.339-1.137-.733-.1-.129-.433,3.216.473-2.445,2.111-.131-.439Zm.328-.276.786-.664-1.026-.143Z" transform="translate(-303.603 -105.448)" fill="#151011"/>
      <path id="Path_14" data-name="Path 14" d="M308.816,112.076l-.328-.219a.593.593,0,0,0,.115-.257.482.482,0,0,0-.262-.451.307.307,0,0,0-.27,0c-.123.06-.178.2-.164.414l.017.3a1.174,1.174,0,0,1-.086.591.752.752,0,0,1-.368.35.846.846,0,0,1-.68.044.871.871,0,0,1-.5-.466.845.845,0,0,1-.064-.629.981.981,0,0,1,.417-.523l.267.342a.72.72,0,0,0-.261.237.436.436,0,0,0,0,.418.442.442,0,0,0,.259.237.5.5,0,0,0,.479-.113.385.385,0,0,0,.08-.116.539.539,0,0,0,.043-.157,1.21,1.21,0,0,0,.007-.2l-.015-.289a.769.769,0,0,1,.388-.818.666.666,0,0,1,.574-.011.866.866,0,0,1,.448.444A.83.83,0,0,1,308.816,112.076Z" transform="translate(-304.974 -107.867)" fill="#151011"/>
      <path id="Path_15" data-name="Path 15" d="M310.789,114.707l-1.993,1.3-.229-.35,1.992-1.3-.348-.534.329-.215.926,1.417-.33.215Z" transform="translate(-306.237 -109.411)" fill="#151011"/>
      <path id="Path_16" data-name="Path 16" d="M313.338,118.422l-.718-.849-.509.431.7.825-.3.254-.7-.825-.708.6.718.849-.3.254-.987-1.169L312.651,117l.987,1.169Z" transform="translate(-307.279 -111.21)" fill="#151011"/>
      <path id="Path_17" data-name="Path 17" d="M315.284,121.9l-.15,1.454-.381-.342.168-1.374-.056-.05-.758.845-.312-.279,1.852-2.064.365.327a1.228,1.228,0,0,1,.453.684.76.76,0,0,1-.2.632.789.789,0,0,1-.464.264A.748.748,0,0,1,315.284,121.9Zm-.176-.585.1.089q.442.4.746.059.284-.318-.146-.7l-.112-.1Z" transform="translate(-309.009 -112.849)" fill="#151011"/>
      <path id="Path_18" data-name="Path 18" d="M319.989,126.655l1.332-2.432.51.28a2.121,2.121,0,0,1,.54.39,1.234,1.234,0,0,1,.282.468,1.328,1.328,0,0,1-.117,1.11,1.314,1.314,0,0,1-.89.691,1.285,1.285,0,0,1-.544.015,2.134,2.134,0,0,1-.609-.246Zm.556-.145.166.091a1.592,1.592,0,0,0,.439.173,1.016,1.016,0,0,0,1.1-1.3,1.158,1.158,0,0,0-.589-.612l-.165-.09Z" transform="translate(-312.295 -115.042)" fill="#151011"/>
      <path id="Path_19" data-name="Path 19" d="M325.451,129.282l1.438-2.676.274,2.34,1.578-1.768-.378,3-.411-.126.239-1.678-1.316,1.479-.23-1.959-.779,1.513Z" transform="translate(-315.192 -116.306)" fill="#151011"/>
      <path id="Path_20" data-name="Path 20" d="M336.7,130.01l1.2.03.027-1.084.418.011-.07,2.772-.418-.011.032-1.295-1.2-.031-.033,1.3-.418-.011.07-2.772.419.011Z" transform="translate(-320.913 -117.531)" fill="#151011"/>
      <path id="Path_21" data-name="Path 21" d="M343.322,128.9l-1.1.14.085.661,1.07-.137.05.39-1.071.137.117.919,1.1-.14.05.39-1.518.193-.351-2.751,1.518-.193Z" transform="translate(-323.84 -117.317)" fill="#151011"/>
      <path id="Path_22" data-name="Path 22" d="M348.444,129.426l-1.141.332-.109.733-.432.125.5-3.213,2.093,2.461-.44.128Zm-.274-.33-.657-.791-.152,1.026Z" transform="translate(-326.496 -116.729)" fill="#151011"/>
      <path id="Path_23" data-name="Path 23" d="M351.337,126.347l.979,2.169.743-.335.162.359-1.125.508-1.142-2.528Z" transform="translate(-328.721 -116.169)" fill="#151011"/>
      <path id="Path_24" data-name="Path 24" d="M354.1,124.687l1.187,2.062-.363.208-1.187-2.062-.553.319-.2-.341,1.466-.844.2.34Z" transform="translate(-329.802 -114.939)" fill="#151011"/>
      <path id="Path_25" data-name="Path 25" d="M357.5,122.97l.941-.74-.671-.853.329-.259,1.714,2.179-.329.259-.8-1.018-.94.74.8,1.018-.328.258-1.715-2.179.328-.259Z" transform="translate(-331.665 -113.396)" fill="#151011"/>
      <path id="Path_26" data-name="Path 26" d="M362.64,117.4l.368.332a1.161,1.161,0,0,0-.729.354.955.955,0,0,0-.256.74,1.04,1.04,0,0,0,.357.72,1.011,1.011,0,0,0,.743.276.977.977,0,0,0,.707-.334.906.906,0,0,0,.2-.327,1.164,1.164,0,0,0,.047-.2,2.1,2.1,0,0,0,.022-.243l.374.339a1.494,1.494,0,0,1-.355.7,1.423,1.423,0,0,1-2.017.108,1.429,1.429,0,0,1-.466-.894,1.392,1.392,0,0,1,.372-1.168A1.422,1.422,0,0,1,362.64,117.4Z" transform="translate(-334.378 -111.425)" fill="#151011"/>
      <path id="Path_27" data-name="Path 27" d="M367.172,115.132l-.632,1.006.406.62-.239.382-1.767-2.729,3.2.445-.244.388Zm-.424-.064-1.018-.153.57.866Z" transform="translate(-336.139 -109.838)" fill="#151011"/>
      <path id="Path_28" data-name="Path 28" d="M368.654,110.295l1.423-.328-.2.471-1.354.286-.03.07,1.045.443-.163.385-2.553-1.081.191-.452a1.225,1.225,0,0,1,.5-.651.762.762,0,0,1,.664-.011.794.794,0,0,1,.4.353A.759.759,0,0,1,368.654,110.295Zm-.5.356.052-.123q.232-.547-.187-.725-.391-.166-.617.366l-.058.138Z" transform="translate(-337.138 -107.156)" fill="#151011"/>
      <path id="Path_29" data-name="Path 29" d="M369.226,104.772l-.287,1.074.643.172.279-1.043.38.1-.278,1.043.895.239.287-1.073.379.1-.394,1.479-2.679-.717.395-1.477Z" transform="translate(-338.001 -104.671)" fill="#151011"/>
    </g>
    <g id="Group_12" data-name="Group 12" transform="translate(197.05 63.865)">
      <g id="Group_10" data-name="Group 10">
        <g id="Group_9" data-name="Group 9" clip-path="url(#clip-path)">
          <g id="Group_8" data-name="Group 8" transform="translate(-0.725 -0.829)">
            <path id="Path_30" data-name="Path 30" d="M310.254,82.206A13.645,13.645,0,1,1,323.9,95.852a13.643,13.643,0,0,1-13.649-13.646Z" transform="translate(-310.121 -68.363)" fill="#33a76e"/>
            <g id="Group_7" data-name="Group 7">
              <g id="Group_6" data-name="Group 6">
                <path id="Path_31" data-name="Path 31" d="M309.97,81.774a13.636,13.636,0,0,1,13.641-13.641c6.231,0,11.733,3.821,13.367,9.515a2.113,2.113,0,0,1-.952.452,5.25,5.25,0,0,0-2.5,1.324L330.8,82.508,325.9,87.463s-.454.094-.5-.742-.7-3.777-.7-3.777a6.055,6.055,0,0,1-1.188,1.885,16.266,16.266,0,0,1-7.446,3.47,5.635,5.635,0,0,1-3.948-1.082,6.077,6.077,0,0,0-1.683-1.9A13.723,13.723,0,0,1,309.97,81.774Z" transform="translate(-309.97 -68.133)" fill="#11207a"/>
              </g>
            </g>
          </g>
        </g>
      </g>
      <g id="Group_11" data-name="Group 11" transform="translate(0.017 8.203)">
        <path id="Path_33" data-name="Path 33" d="M326.549,88.384s-.135-.133-.349.6a17.364,17.364,0,0,0-.237,2.789,8.051,8.051,0,0,0,1.181-3.034C327.144,88.141,326.549,88.384,326.549,88.384Zm-3.273,3.958a.39.39,0,0,1-.016.036.71.71,0,0,1,.389.042c.209.138.29.517.209.584-.172.122-1.911,1.2-2.322,1.036s-2.03-1.78-3.031-2.442-5.873-2.238-6.08,1.861,4.014,5.3,6.7,4.388c2.7-.907,5.677-4.472,5.677-4.472-.035-3.1.253-3.933.832-5.115.617-1.253,2.613-1.342,2.28.765a10.035,10.035,0,0,1-1.99,4.107,23.752,23.752,0,0,1,.829,4.053s4.665-5.453,6.7-7.535c1.991-2.028,3.61-1.327,3.61-1.327-.461.208-.584,1.746-.663,1.99s-.62,0-.62,0l.078-.534c-.87-1.286-2.607.987-3.519,2.892a23.775,23.775,0,0,0-1.328,5.752l1.25.087v.665a8.408,8.408,0,0,0-2.531.785,8.834,8.834,0,0,1,.041-1.411c.085-1.161.992-4.807.992-4.807s-1.493,1.58-2.027,2.284-3.107,3.64-3.107,3.64l-.412-.41a12.646,12.646,0,0,0,.289-2.449c-.083-.656-.41-2.229-.41-2.229l-1.036,1.033a16.5,16.5,0,0,1-4.1,2.939c-7.986,2.485-9.7-4.665-7.573-7.29a4.936,4.936,0,0,1,5.872-1.24c.917.393,3.974,2.855,4.355,2.9.31.031.57-.416.645-.543C323.242,92.375,323.242,92.363,323.275,92.341Z" transform="translate(-311.548 -87.369)" fill="#fff" fill-rule="evenodd"/>
      </g>
    </g>
    <g id="Group_220" data-name="Group 220" transform="translate(110.768 91.352)">
      <path id="Path_34" data-name="Path 34" d="M128.235,128.868l.945,4.8h.248l1.1-4.742h.547l1.088,4.742h.248l.945-4.8h.473l-1.073,5.214h-.93l-1.028-4.576-1.027,4.576h-.931l-1.072-5.214Z" transform="translate(-127.763 -128.666)" fill="#f2f2f2"/>
      <path id="Path_35" data-name="Path 35" d="M144.278,133.586c0-1.013-.322-1.373-1.027-1.373-.683,0-1.088.376-1.088,1.373Zm.3,1.666.015.368s-.848.105-1.434.105c-1.117-.008-1.455-.683-1.455-1.936,0-1.448.631-1.966,1.546-1.966.968,0,1.477.518,1.477,1.778l-.015.36h-2.55c0,.886.255,1.358,1.042,1.358.548,0,1.373-.067,1.373-.067" transform="translate(-135.158 -130.233)" fill="#f2f2f2"/>
      <path id="Path_36" data-name="Path 36" d="M149.941,128.564h.48l-.435,1.583h-.36Z" transform="translate(-139.36 -128.504)" fill="#f2f2f2"/>
      <rect id="Rectangle_6" data-name="Rectangle 6" width="0.443" height="5.416" transform="translate(11.998)" fill="#f2f2f2"/>
      <rect id="Rectangle_7" data-name="Rectangle 7" width="0.442" height="5.416" transform="translate(13.656)" fill="#f2f2f2"/>
      <path id="Path_37" data-name="Path 37" d="M162.8,128.868h3.751v.42h-1.635v4.794h-.465v-4.794H162.8Z" transform="translate(-146.348 -128.666)" fill="#f2f2f2"/>
      <path id="Path_38" data-name="Path 38" d="M170.691,131.9h.442v.54a4.017,4.017,0,0,1,1.419-.615v.45a5.382,5.382,0,0,0-1.419.563v2.813h-.442Z" transform="translate(-150.534 -130.233)" fill="#f2f2f2"/>
      <path id="Path_39" data-name="Path 39" d="M178.12,133.586c0-1.013-.323-1.373-1.027-1.373-.683,0-1.088.376-1.088,1.373Zm.3,1.666.015.368s-.848.105-1.433.105c-1.118-.008-1.456-.683-1.456-1.936,0-1.448.631-1.966,1.546-1.966.968,0,1.477.518,1.477,1.778l-.015.36H176c0,.886.255,1.358,1.042,1.358.548,0,1.373-.067,1.373-.067" transform="translate(-153.109 -130.233)" fill="#f2f2f2"/>
      <path id="Path_40" data-name="Path 40" d="M184.59,133.849c-.5.045-.69.285-.69.735,0,.48.21.758.622.758a4.252,4.252,0,0,0,1.291-.262v-1.358Zm1.666,1.178c.023.225.24.3.487.33l-.022.361a1.056,1.056,0,0,1-.848-.3,4.068,4.068,0,0,1-1.411.308c-.66,0-1.028-.383-1.028-1.133,0-.69.346-1.021,1.1-1.1l1.275-.127v-.353c0-.57-.255-.788-.735-.788-.54,0-1.417.112-1.417.112l-.023-.36a9.455,9.455,0,0,1,1.456-.158c.818,0,1.163.4,1.163,1.193Z" transform="translate(-157.293 -130.233)" fill="#f2f2f2"/>
      <path id="Path_41" data-name="Path 41" d="M192.154,131.05V132.9c0,.937.06,1.178.6,1.178.21,0,.69-.053.69-.053l.03.383a6.922,6.922,0,0,1-.757.076c-.742,0-1.013-.278-1.013-1.358V131.05h-.555v-.4h.555v-1.178h.451v1.178h1.252v.4Z" transform="translate(-161.386 -128.987)" fill="#f2f2f2"/>
      <path id="Path_42" data-name="Path 42" d="M202.118,134.082h-.465v-2.206l-1.673-3.008h.518l1.388,2.528,1.38-2.528h.526l-1.674,3.008Z" transform="translate(-166.07 -128.666)" fill="#f2f2f2"/>
      <path id="Path_43" data-name="Path 43" d="M210.715,133.721c0-1.126-.256-1.5-1.111-1.5s-1.11.376-1.11,1.5c0,1.148.135,1.605,1.11,1.605s1.111-.458,1.111-1.605m.457,0c0,1.418-.315,2-1.568,2s-1.576-.586-1.576-2c0-1.328.413-1.9,1.576-1.9s1.568.57,1.568,1.9" transform="translate(-170.339 -130.232)" fill="#f2f2f2"/>
      <path id="Path_44" data-name="Path 44" d="M219.552,131.983v3.751h-.443v-.278a2.583,2.583,0,0,1-1.155.353c-1.043,0-1.253-.466-1.253-1.868v-1.958h.442v1.951c0,1.118.113,1.47.863,1.47a2.356,2.356,0,0,0,1.1-.315v-3.106Z" transform="translate(-174.939 -130.318)" fill="#f2f2f2"/>
      <path id="Path_45" data-name="Path 45" d="M228.481,128.868l.945,4.8h.248l1.1-4.742h.547l1.088,4.742h.248l.945-4.8h.473L233,134.082h-.93l-1.028-4.576-1.027,4.576h-.931l-1.072-5.214Z" transform="translate(-180.938 -128.666)" fill="#f2f2f2"/>
      <path id="Path_46" data-name="Path 46" d="M244.524,133.586c0-1.013-.322-1.373-1.027-1.373-.683,0-1.088.376-1.088,1.373Zm.3,1.666.014.368s-.847.105-1.432.105c-1.118-.008-1.456-.683-1.456-1.936,0-1.448.631-1.966,1.546-1.966.968,0,1.477.518,1.477,1.778l-.015.36h-2.55c0,.886.254,1.358,1.041,1.358.548,0,1.374-.067,1.374-.067" transform="translate(-188.333 -130.233)" fill="#f2f2f2"/>
      <rect id="Rectangle_8" data-name="Rectangle 8" width="0.442" height="5.416" transform="translate(57.608)" fill="#f2f2f2"/>
      <rect id="Rectangle_9" data-name="Rectangle 9" width="0.442" height="5.416" transform="translate(59.265)" fill="#f2f2f2"/>
    </g>
  </g>
</svg>
